<svg xmlns="http://www.w3.org/2000/svg" viewBox="0 0 64 64">
  <defs>
    <linearGradient id="spaGradient" x1="0%" y1="0%" x2="100%" y2="100%">
      <stop offset="0%" stop-color="#f9c9d0" />
      <stop offset="50%" stop-color="#f4a5b0" />
      <stop offset="100%" stop-color="#e27a8a" />
    </linearGradient>
  </defs>
  <rect x="4" y="4" width="56" height="56" rx="18" fill="url(#spaGradient)" />
  <g fill="none" stroke="#ffffff" stroke-width="2.4" stroke-linecap="round" stroke-linejoin="round">
    <!-- Stylized lotus flower -->
    <path d="M32 38c-5.5 0-9-3.2-10.5-6.8 2.4-.3 4.9.1 7.1 1.3C29.6 29.3 30.7 26 32 24c1.3 2 2.4 5.3 3.4 8.5 2.2-1.1 4.7-1.6 7.1-1.3C41 34.8 37.5 38 32 38z" />
    <path d="M24.5 29.5c-2.6-.4-5.1.2-7 1.3 1 3.3 3.3 6.1 6.6 7.7" />
    <path d="M39.5 29.5c2.6-.4 5.1.2 7 1.3-1 3.3-3.3 6.1-6.6 7.7" />
    <!-- Gentle base curve -->
    <path d="M22 42c3 2 6.7 3 10 3s7-1 10-3" />
  </g>
</svg>

